<svg xmlns="http://www.w3.org/2000/svg" xmlns:xlink="http://www.w3.org/1999/xlink" version="1.1" x="0px" y="0px" viewBox="0 0 100 125" style="enable-background:new 0 0 100 100;" xml:space="preserve"><path d="M88.652,78.569h-1.755l-1.606-35.291c0-2.265-1.13-4.269-2.852-5.487l0.943-1.619c0.225-0.387,0.287-0.849,0.171-1.281  c-0.116-0.432-0.399-0.801-0.788-1.023l-2.465-1.411c0.027-0.316,0.04-0.63,0.04-0.942c0-0.313-0.013-0.626-0.04-0.942l2.465-1.411  c0.389-0.222,0.673-0.591,0.788-1.024c0.116-0.432,0.055-0.893-0.171-1.281l-3.391-5.821c-0.466-0.797-1.485-1.07-2.287-0.613  l-2.482,1.42c-0.527-0.361-1.083-0.68-1.665-0.953v-2.82c0-0.103-0.013-0.203-0.031-0.301v-6.421c0-0.928-0.752-1.68-1.68-1.68  H24.791c-0.928,0-1.68,0.752-1.68,1.68v25.208H21.43c-3.706,0-6.722,3.016-6.72,6.646l-1.608,35.368h-1.755  c-0.928,0-1.681,0.753-1.681,1.681v3.361c0,3.706,3.016,6.722,6.722,6.722h67.222c3.706,0,6.722-3.016,6.722-6.722V80.25  C90.333,79.322,89.581,78.569,88.652,78.569z M86.972,83.611c0,1.854-1.507,3.361-3.361,3.361H16.389  c-1.854,0-3.361-1.508-3.361-3.361V81.93h1.681h70.583h1.681V83.611z M21.43,39.917h1.681v31.93c0,0.928,0.752,1.681,1.68,1.681  c0.928,0,1.681-0.752,1.681-1.681v-31.93v-1.681v-1.681V13.028h43.694v3.361h-5.071c-0.928,0-1.681,0.752-1.681,1.68v2.82  c-0.582,0.273-1.138,0.591-1.665,0.953l-2.482-1.42c-0.799-0.457-1.822-0.185-2.287,0.613l-3.391,5.821  c-0.225,0.388-0.287,0.849-0.171,1.281c0.116,0.433,0.4,0.801,0.789,1.024l2.464,1.411c-0.027,0.316-0.04,0.629-0.04,0.942  c0,0.312,0.013,0.626,0.04,0.942l-2.464,1.411c-0.389,0.222-0.673,0.591-0.789,1.023c-0.116,0.432-0.054,0.894,0.171,1.281  l0.223,0.384l0.98,1.681l0.979,1.681l1.209,2.076c0.465,0.799,1.486,1.071,2.287,0.613l2.482-1.421  c0.527,0.362,1.083,0.68,1.665,0.952v2.82c0,0.928,0.752,1.681,1.681,1.681h5.071v25.208c0,0.928,0.753,1.681,1.681,1.681  c0.928,0,1.68-0.752,1.68-1.681V45.26c0.018-0.098,0.031-0.198,0.031-0.301v-2.82c0.582-0.272,1.138-0.591,1.665-0.952l2.482,1.421  c0.803,0.459,1.822,0.185,2.287-0.613l0.743-1.275c0.73,0.625,1.197,1.565,1.197,2.637l1.601,35.215H16.467l1.603-35.291  C18.069,41.424,19.577,39.917,21.43,39.917z M75.927,25.313l1.999-1.145l1.701,2.917l-1.977,1.131  c-0.62,0.355-0.949,1.063-0.818,1.765c0.1,0.537,0.148,1.038,0.148,1.532c0,0.494-0.048,0.995-0.148,1.532  c-0.13,0.702,0.198,1.411,0.818,1.765l1.977,1.131l-0.377,0.647l-0.96,1.646l-0.364,0.624l-1.089-0.624l-0.91-0.521  c-0.613-0.35-1.382-0.281-1.921,0.177c-0.144,0.122-0.295,0.232-0.446,0.344c-0.011,0.008-0.021,0.017-0.032,0.025  c-0.52,0.38-1.082,0.699-1.68,0.953c-0.174,0.074-0.346,0.148-0.526,0.211c-0.284,0.1-0.526,0.273-0.713,0.492  c-0.257,0.298-0.411,0.682-0.411,1.095v2.267h-0.031h-3.391v-2.267c0-0.413-0.154-0.796-0.411-1.095  c-0.188-0.218-0.429-0.392-0.713-0.492c-0.811-0.284-1.559-0.687-2.239-1.189c-0.151-0.112-0.302-0.222-0.445-0.344  c-0.539-0.458-1.307-0.527-1.921-0.177l-0.91,0.521l-1.09,0.624l-0.364-0.624l-0.979-1.681l-0.357-0.613l1.977-1.131  c0.62-0.355,0.949-1.063,0.818-1.765c-0.101-0.536-0.149-1.038-0.149-1.532c0-0.494,0.048-0.996,0.149-1.532  c0.13-0.702-0.198-1.41-0.818-1.765l-1.977-1.131l1.7-2.917l2,1.145c0.614,0.351,1.382,0.28,1.921-0.177  c0.79-0.67,1.694-1.186,2.684-1.533c0.674-0.236,1.124-0.872,1.124-1.586V19.75h3.391h0.031v2.267c0,0.714,0.451,1.35,1.124,1.586  c0.179,0.063,0.352,0.138,0.526,0.211c0.598,0.255,1.16,0.573,1.68,0.953c0.162,0.119,0.324,0.238,0.478,0.368  C74.544,25.593,75.313,25.664,75.927,25.313z M31.514,41.597c0-0.928,0.752-1.68,1.68-1.68h15.125c0.928,0,1.681,0.752,1.681,1.68  c0,0.928-0.752,1.681-1.681,1.681H33.194C32.266,43.278,31.514,42.526,31.514,41.597z M31.514,34.875  c0-0.925,0.756-1.681,1.68-1.681h6.722c0.924,0,1.681,0.756,1.681,1.681c0,0.924-0.757,1.68-1.681,1.68h-6.722  C32.27,36.555,31.514,35.799,31.514,34.875z M50,28.153c0,0.924-0.757,1.68-1.681,1.68h-6.722c-0.925,0-1.681-0.756-1.681-1.68  c0-0.925,0.756-1.681,1.681-1.681h6.722C49.243,26.472,50,27.228,50,28.153z M34.875,26.472c0.924,0,1.68,0.756,1.68,1.681  c0,0.924-0.756,1.68-1.68,1.68c-0.925,0-1.681-0.756-1.681-1.68C33.194,27.228,33.95,26.472,34.875,26.472z M31.514,21.43  c0-0.928,0.752-1.68,1.68-1.68h15.125c0.928,0,1.681,0.752,1.681,1.68c0,0.928-0.752,1.681-1.681,1.681H33.194  C32.266,23.111,31.514,22.359,31.514,21.43z M31.514,48.319c0-0.925,0.756-1.68,1.68-1.68h15.125c0.924,0,1.681,0.756,1.681,1.68  C50,49.243,49.243,50,48.319,50H33.194C32.27,50,31.514,49.243,31.514,48.319z M31.514,55.042c0-0.928,0.752-1.681,1.68-1.681h30.25  c0.928,0,1.681,0.752,1.681,1.681c0,0.928-0.752,1.68-1.681,1.68h-30.25C32.266,56.722,31.514,55.97,31.514,55.042z M31.514,61.764  c0-0.928,0.752-1.681,1.68-1.681h30.25c0.928,0,1.681,0.752,1.681,1.681c0,0.928-0.752,1.68-1.681,1.68h-30.25  C32.266,63.444,31.514,62.692,31.514,61.764z M31.514,68.486c0-0.928,0.752-1.681,1.68-1.681h30.25c0.928,0,1.681,0.753,1.681,1.681  c0,0.928-0.752,1.681-1.681,1.681h-30.25C32.266,70.167,31.514,69.414,31.514,68.486z M71.847,27.748  c-0.486-0.429-1.055-0.766-1.681-0.986c-0.527-0.185-1.091-0.29-1.68-0.29c-2.797,0-5.072,2.262-5.072,5.042  c0,2.78,2.275,5.041,5.072,5.041c0.59,0,1.153-0.106,1.68-0.291c0.626-0.219,1.195-0.556,1.681-0.986  c0.919-0.811,1.542-1.945,1.68-3.224c0.019-0.178,0.031-0.359,0.031-0.542c0-0.183-0.012-0.364-0.031-0.542  C73.389,29.693,72.766,28.56,71.847,27.748z M68.486,33.194c-0.944,0-1.711-0.754-1.711-1.68c0-0.927,0.767-1.681,1.711-1.681  c0.841,0,1.538,0.6,1.68,1.386v0.59C70.024,32.595,69.327,33.194,68.486,33.194z"/><text x="0" y="115" fill="#000000" font-size="5px" font-weight="bold" font-family="'Helvetica Neue', Helvetica, Arial-Unicode, Arial, Sans-serif">Created by Pike Picture</text><text x="0" y="120" fill="#000000" font-size="5px" font-weight="bold" font-family="'Helvetica Neue', Helvetica, Arial-Unicode, Arial, Sans-serif">from the Noun Project</text></svg>